PathFileType	4	(X/Y/Z)	Patient4_TMGait_0pt2_02_right_22.trc.trc
DataRate	CameraRate	NumFrames	NumMarkers	Units	OrigDataRate	OrigDataStartFrame	OrigNumFrames
49.295774647887	49.295774647887	5	33	mm	49.295774647887	53	       141
Frame#	Time	R.Midfoot.Superior			Sacral			L.Shoulder			Chest			R.Shoulder			Neck			R.ASIS			L.ASIS			R.Thigh.Superior			R.Thigh.Lateral			R.Thigh.Inferior			R.Patella			L.Thigh.Superior			L.Thigh.Lateral			L.Thigh.Inferior			L.Patella			L.Shank.Superior			L.Shank.Lateral			L.Shank.Inferior			R.Shank.Superior			R.Shank.Lateral			R.Shank.Inferior			R.Heel			R.Midfoot.Lateral			R.Toe			L.Heel			L.Midfoot.Lateral			L.Midfoot.Superior			L.Toe			L.Elbow			L.Wrist			R.Elbow			R.Wrist			
		X1	Y1	Z1	X2	Y2	Z2	X3	Y3	Z3	X4	Y4	Z4	X5	Y5	Z5	X6	Y6	Z6	X7	Y7	Z7	X8	Y8	Z8	X9	Y9	Z9	X10	Y10	Z10	X11	Y11	Z11	X12	Y12	Z12	X13	Y13	Z13	X14	Y14	Z14	X15	Y15	Z15	X16	Y16	Z16	X17	Y17	Z17	X18	Y18	Z18	X19	Y19	Z19	X20	Y20	Z20	X21	Y21	Z21	X22	Y22	Z22	X23	Y23	Z23	X24	Y24	Z24	X25	Y25	Z25	X26	Y26	Z26	X27	Y27	Z27	X28	Y28	Z28	X29	Y29	Z29	X30	Y30	Z30	X31	Y31	Z31	X32	Y32	Z32	X33	Y33	Z33	

53	49.704857142857	1198.821948890293	96.580411870483	612.739305175496	986.728461165745	992.117485851441	588.369698073473	1154.471469646485	1413.566344352171	380.320190371363	1263.533829939048	1351.509007481213	539.029949788922	1190.003898430225	1431.292799042926	714.089835913612	1142.500081782785	1483.368070434838	535.574904467596	1224.436675000128	931.473639086135	692.409335775419	1193.309920567742	950.238854126355	419.836433502428	1274.973972239191	735.234895051652	645.813319787623	1204.219628830080	616.258586210880	700.863001786205	1277.755289811811	573.702674833447	612.031833159863	1282.009043475791	478.840124473278	613.124036322253	1276.997208370637	764.406160661518	444.177940104712	1227.061840858567	639.837124694182	361.283636384899	1330.394940459818	573.710499197419	421.294983607973	1338.929876543556	484.106389427835	407.999945357744	1269.046215517867	421.373344328472	394.229286279925	1126.625487805876	388.918942683509	339.669246016716	1107.430165059258	255.398213117460	382.803374895090	1239.436102709023	391.298793998391	617.174751557181	1158.318537738526	293.990922545878	678.204529730032	1181.355045874886	199.082509258685	608.041051503098	1026.336997099244	45.146730982618	577.528722531999	1109.955037164445	37.554483287170	651.476171641971	1318.310635607213	42.731440770356	641.378391913237	914.413491429249	204.838829986851	415.356404222892	966.191117164007	155.011120928907	333.203060401945	1072.250192282225	150.131888702384	352.662251389699	1137.783421752466	35.489332140071	320.484480877856	1122.187001207800	1052.319868361067	289.432196318198	1165.284846536403	796.459369874212	302.163515238003	1256.179887854223	1094.247144870919	855.096613482818	1467.232891987053	941.781050595232	848.593481635893	
54	49.725142857143	1194.765331051632	96.442898553704	612.636243910895	985.033158974063	990.124989157117	592.174324497880	1150.557766359811	1411.556509619006	382.162071096755	1262.303664296475	1348.980834984835	538.883379167871	1192.348880059223	1428.886571505984	715.347187559438	1141.638276461701	1481.369457939884	537.582585671130	1224.183913508211	929.487959833666	693.253794111018	1189.531274037103	948.563271290226	421.132156622081	1275.530232299484	733.937664196559	646.124309365876	1205.870680402260	614.392509358155	701.090016960760	1279.257673132908	572.502678176676	611.606462593307	1283.916640443071	477.018183379275	612.428775106675	1277.597183403449	767.278606379846	446.128316165288	1232.169689888683	641.621793425861	362.649210232490	1337.130622995418	578.188991328167	423.264426432752	1347.896725276471	488.139328754794	409.302422405147	1278.121124188183	424.168878089722	395.437841009112	1134.915868882495	391.726338957245	342.316603680762	1116.562376656766	257.814233174534	384.851437703308	1240.041676701794	389.524723205756	616.592639468096	1157.892475730503	293.176479425949	678.003058594693	1179.150856888597	198.071124459823	607.749681279972	1022.310137505037	45.212109274131	577.584307187549	1105.921771888119	37.556503717045	651.538131547039	1314.293728918505	42.525174967504	641.438693687616	923.873719054539	206.265792686752	418.923119542826	975.101500802530	158.030663223466	335.540705219410	1081.397558364351	153.195967270590	354.266835790988	1146.945287196535	37.258458308891	319.355416257545	1103.370081819260	1051.901110103825	292.743480185623	1129.030342973101	793.426626402904	305.856636098132	1271.796770522453	1095.201003899285	855.357705986029	1492.949269980886	958.528657401725	843.009548473774	
55	49.745428571429	1190.677942774756	96.300983037540	612.515679996911	983.324627018568	988.432557173200	595.715783149832	1146.670522431734	1409.923659139641	383.969556411191	1261.076415838243	1346.660718150137	538.564769420155	1194.789314381589	1426.657970972435	716.387290316783	1140.829999997961	1479.617298246157	539.476998840807	1223.819277771106	927.638803391098	693.726785776544	1185.649040196236	947.126944129569	422.081134097941	1275.653827828174	732.676589052474	646.139493387843	1206.977440333167	612.685974942268	701.105568834399	1280.146389272512	571.342178468591	610.981122903551	1285.116864649174	475.354810038522	611.560383982822	1277.322616305251	769.912767404952	447.511909103853	1235.755772731778	643.414781927890	363.628595280375	1342.031020038399	582.356219757655	424.633535744822	1354.956458147930	492.191566976352	410.127879494908	1285.838715966042	426.885347210160	396.212409736713	1142.354719833011	393.003351452868	344.477509982875	1126.216404908324	258.634439436429	386.454420462606	1240.082224043269	387.891107084785	615.869435174546	1157.078297520350	292.421845605322	677.708009637655	1176.733589017574	197.131358131895	607.416233669253	1018.269147290122	45.259470458475	577.637186684614	1101.879794977333	37.553315467739	651.607004302620	1310.261301183640	42.355837468205	641.489782354661	934.633601545008	203.598694336044	421.957645635804	985.899510803748	157.828096527125	337.394733850428	1092.256079988557	154.631397360624	355.455203889872	1159.395580974963	39.124410788222	317.891653406409	1084.700746332778	1052.663070718363	295.652138077050	1094.895079939198	793.022153982835	309.669621708022	1287.283387498805	1096.900006906041	855.123884173716	1517.308681302982	976.973218909382	836.571611338412	
56	49.765714285714	1186.564943185123	96.161597276599	612.391194059078	981.651517698512	987.180986144151	599.037317733976	1142.789646794803	1408.789115698073	385.732092690107	1259.853211917311	1344.696762750949	538.051357055914	1197.342196199803	1424.757456800337	717.194896049067	1140.072936365370	1478.235189520122	541.243665819016	1223.377952551639	926.033023006048	693.806936955092	1181.659763309391	946.057730235883	422.676719444853	1275.267795109097	731.508831312828	645.860412302484	1207.413050790438	611.237455482099	700.954708641182	1280.245056428996	570.274202885909	610.199480346249	1285.398789877787	473.924591091044	610.581187524052	1276.165162178914	772.293022613693	448.290738897201	1237.667550282019	645.151704302120	364.220192349290	1344.976192308583	586.093345644005	425.343198852461	1359.946292251124	496.179921544123	410.434709876094	1292.090976113035	429.475617713051	396.492012748727	1148.975435759124	392.642291788885	345.969821569354	1136.484461463364	257.819487919039	387.410792871760	1239.392094658488	386.486004901803	615.075010119585	1155.749792053581	291.764503996922	677.358856338087	1174.034683911260	196.310306448721	607.065043350737	1014.214538069664	45.290570473749	577.692572564909	1097.829782517759	37.545435486195	651.684103569412	1306.213170534566	42.221637561278	641.531303862328	946.924541432710	196.943207693532	424.133986537750	998.776588184285	154.363079791506	338.514301101268	1104.970751891406	154.299580301500	356.023156772502	1175.161292764627	40.895838071119	316.059457286877	1066.412849096867	1054.638911874019	298.246944762548	1063.185740061163	794.895162339158	313.618960275570	1302.569988038840	1099.456398095743	854.408524942695	1540.080850102953	997.036915920077	829.375615979041	
57	49.786000000000	1182.433491482642	96.034264384099	612.280600714702	980.056573601959	986.499875130708	602.167975153079	1138.904726750141	1408.253569008218	387.431173840037	1258.637097401622	1343.224781366604	537.322179537212	1200.013340348055	1423.325339184176	717.748954762873	1139.364491802018	1477.332318574780	542.861293936879	1222.889509281466	924.768644871222	693.484395305782	1177.568598456317	945.472751754125	422.921915729208	1274.312879938964	730.490475068565	645.301767674507	1207.069987626339	610.136915517051	700.688450031859	1279.406214958435	569.350154166003	609.313779272221	1284.585418657506	472.794185718681	609.560886990548	1274.128092338847	774.413867505750	448.458485177462	1237.799545805224	646.783136594334	364.432280281037	1345.888510208212	589.311040733858	425.379100348737	1362.753823845694	500.038320687721	410.220253430120	1296.796450712942	431.922543988319	396.248179542265	1154.836919046831	390.649815930377	346.660957288795	1147.422567827241	255.477676163315	387.571272797069	1237.833385386265	385.389767742669	614.286176784910	1153.795487908360	291.240952351950	677.001139168030	1170.992828370760	195.653960160783	606.725851098177	1010.146897061377	45.306867593514	577.756809117696	1093.771021152396	37.533097762695	651.770242823388	1302.148474165450	42.120626429406	641.563206420684	960.948408890364	186.687612172657	425.210090248422	1013.851146974118	147.854964636336	338.712734847804	1119.602380424542	152.239995431283	355.811341152893	1194.085897113261	42.454039520500	313.829887701152	1048.734706909202	1057.808996164017	300.636790921549	1034.098563211255	798.663752505403	317.722518919583	1317.570803139604	1102.958337692016	853.211632521359	1561.058595967596	1018.584370963517	821.516698957687	
